<svg id="Layer_1" data-name="Layer 1" xmlns="http://www.w3.org/2000/svg" viewBox="0 0 289.25 49.86"><defs><style>.cls-1{fill:#dcf3d9;stroke:#65b872;}.cls-1,.cls-5{stroke-miterlimit:10;}.cls-2{fill:#4cd071;}.cls-3{fill:#171717;}.cls-4{font-size:15px;font-family:Microsoft-Yi-Baiti, Microsoft Yi Baiti;font-style:italic;}.cls-5{stroke:#1d1d1b;}.cls-6{font-size:14px;}</style></defs><rect class="cls-1" x="0.5" y="0.5" width="288.25" height="48.86" rx="8.89"/><g id="Tick_Square" data-name="Tick Square"><path id="Tick_Square-2" data-name="Tick Square-2" class="cls-2" d="M333,318.11h-8.86c-3.46,0-5.79-2.42-5.79-6v-8.35c0-3.61,2.33-6.05,5.79-6.05H333c3.46,0,5.79,2.44,5.79,6.05v8.35C338.76,315.69,336.43,318.11,333,318.11ZM324.9,307a.89.89,0,0,0-.9.89.87.87,0,0,0,.27.64L326.7,311a.91.91,0,0,0,1.26,0l4.85-4.86a.89.89,0,0,0-1.27-1.26l-4.22,4.22-1.79-1.79A.86.86,0,0,0,324.9,307Z" transform="translate(-300.52 -282.96)"/></g><path id="close-2" class="cls-3" d="M561.76,302.88a.69.69,0,0,0-1,1l4,4-4,4a.7.7,0,0,0,1,1l4-4,4,4a.7.7,0,1,0,1-1l0,0-4-4,4-4a.69.69,0,0,0,0-1,.71.71,0,0,0-1,0l-4,4Z" transform="translate(-300.52 -282.96)"/><text class="cls-4" transform="translate(85.39 20.74)"><tspan class="cls-5">Successfully Published</tspan><tspan class="cls-6"><tspan x="15.42" y="18">Awesome Vue UI</tspan></tspan></text></svg>